<svg xmlns="http://www.w3.org/2000/svg" viewBox="0 0 1200 1200"><g fill="#fff"><path class="st0" d="M129.6 606L594 1070.4c-118.6-1.4-236.8-46.5-327.4-137.1-90.5-90.5-135.6-208.7-137-327.3zM771.4 600h300c0 224.5-157 411.9-367.1 459.4L140.6 495.7c47.5-210.1 235-367.1 459.4-367.1 156.9 0 295.5 77 381.2 194.9L915.6 379C845.8 279.5 730.5 214.3 600 214.3c-167.7 0-310.3 107.7-363.3 257.5l491.6 491.6c123.4-43.7 218-148.2 247.6-277.6H771.4V600z"/></g><path fill="#639" class="st1" d="M600 0c331.4 0 600 268.6 600 600s-268.6 600-600 600S0 931.4 0 600 268.6 0 600 0zm471.4 600h-300v85.8h204.5c-29.6 129.4-124.2 233.9-247.6 277.6L236.7 471.8C289.7 322 432.3 214.3 600 214.3c130.5 0 245.8 65.2 315.6 164.7l65.6-55.5C895.5 205.6 756.9 128.6 600 128.6c-224.4 0-411.9 157-459.4 367.1l563.7 563.7c210.1-47.5 367.1-234.9 367.1-459.4zM594 1070.4L129.6 606c1.4 118.6 46.5 236.8 137 327.3 90.6 90.6 208.8 135.7 327.4 137.1z"/></svg>